<svg width="65" height="58" viewBox="0 0 65 58" fill="none" xmlns="http://www.w3.org/2000/svg">
<path d="M7.5 37.3301C4.16667 35.4056 4.16667 30.5944 7.5 28.6699L30 15.6795C33.3333 13.755 37.5 16.1606 37.5 20.0096V45.9904C37.5 49.8394 33.3333 52.245 30 50.3205L7.5 37.3301Z" fill="#6AA8FB"/>
<path d="M57.5 28.6699C60.8333 30.5944 60.8333 35.4056 57.5 37.3301L35 50.3205C31.6667 52.245 27.5 49.8394 27.5 45.9904V20.0096C27.5 16.1606 31.6667 13.755 35 15.6795L57.5 28.6699Z" fill="#6AA8FB"/>
<path d="M10.8793 33.851C10.2461 33.4603 10.2461 32.5397 10.8793 32.149L30.3165 20.1558C31.9561 19.1441 34.0311 19.1645 35.6505 20.2081L54.1957 32.1594C54.8067 32.5532 54.8067 33.4468 54.1957 33.8406L35.6505 45.7919C34.0311 46.8355 31.9561 46.8559 30.3165 45.8442L10.8793 33.851Z" fill="white"/>
<rect x="36.3137" y="25" width="4" height="16" rx="2" transform="rotate(45 36.3137 25)" fill="#6AA8FB"/>
<path d="M7.5 37.3301C4.16667 35.4056 4.16667 30.5944 7.5 28.6699L30 15.6795C33.3333 13.755 37.5 16.1606 37.5 20.0096V45.9904C37.5 49.8394 33.3333 52.245 30 50.3205L7.5 37.3301Z" fill="#6AA8FB"/>
<path d="M57.5 28.6699C60.8333 30.5944 60.8333 35.4056 57.5 37.3301L35 50.3205C31.6667 52.245 27.5 49.8394 27.5 45.9904V20.0096C27.5 16.1606 31.6667 13.755 35 15.6795L57.5 28.6699Z" fill="#6AA8FB"/>
<path d="M10.8793 33.851C10.2461 33.4603 10.2461 32.5397 10.8793 32.149L30.3165 20.1558C31.9561 19.1441 34.0311 19.1645 35.6505 20.2081L54.1957 32.1594C54.8067 32.5532 54.8067 33.4468 54.1957 33.8406L35.6505 45.7919C34.0311 46.8355 31.9561 46.8559 30.3165 45.8442L10.8793 33.851Z" fill="white"/>
<rect x="36.3137" y="25" width="4" height="16" rx="2" transform="rotate(45 36.3137 25)" fill="#6AA8FB"/>
<path d="M7.5 29.3301C4.16667 27.4056 4.16667 22.5944 7.5 20.6699L30 7.67949C33.3333 5.75499 37.5 8.16062 37.5 12.0096V37.9904C37.5 41.8394 33.3333 44.245 30 42.3205L7.5 29.3301Z" fill="#6AA8FB"/>
<path d="M57.5 20.6699C60.8333 22.5944 60.8333 27.4056 57.5 29.3301L35 42.3205C31.6667 44.245 27.5 41.8394 27.5 37.9904V12.0096C27.5 8.16062 31.6667 5.75499 35 7.67949L57.5 20.6699Z" fill="#6AA8FB"/>
<path d="M10.8793 25.851C10.2461 25.4603 10.2461 24.5397 10.8793 24.149L30.3165 12.1558C31.9561 11.1441 34.0311 11.1645 35.6505 12.2081L54.1957 24.1594C54.8067 24.5532 54.8067 25.4468 54.1957 25.8406L35.6505 37.7919C34.0311 38.8355 31.9561 38.8559 30.3165 37.8442L10.8793 25.851Z" fill="white"/>
<rect x="36.3137" y="17" width="4" height="16" rx="2" transform="rotate(45 36.3137 17)" fill="#6AA8FB"/>
<path d="M7.5 29.3301C4.16667 27.4056 4.16667 22.5944 7.5 20.6699L30 7.67949C33.3333 5.75499 37.5 8.16062 37.5 12.0096V37.9904C37.5 41.8394 33.3333 44.245 30 42.3205L7.5 29.3301Z" fill="#6AA8FB"/>
<path d="M57.5 20.6699C60.8333 22.5944 60.8333 27.4056 57.5 29.3301L35 42.3205C31.6667 44.245 27.5 41.8394 27.5 37.9904V12.0096C27.5 8.16062 31.6667 5.75499 35 7.67949L57.5 20.6699Z" fill="#6AA8FB"/>
<path d="M10.8793 25.851C10.2461 25.4603 10.2461 24.5397 10.8793 24.149L30.3165 12.1558C31.9561 11.1441 34.0311 11.1645 35.6505 12.2081L54.1957 24.1594C54.8067 24.5532 54.8067 25.4468 54.1957 25.8406L35.6505 37.7919C34.0311 38.8355 31.9561 38.8559 30.3165 37.8442L10.8793 25.851Z" fill="white"/>
<rect x="31" y="16" width="4" height="16" rx="2" fill="#6AA8FB"/>
</svg>
