<svg width="2433" height="655" viewBox="0 0 2433 655" fill="none" xmlns="http://www.w3.org/2000/svg">
<path fill-rule="evenodd" clip-rule="evenodd" d="M0 439L66.9075 421C135.842 403 269.657 367 405.5 367C541.342 367 675.157 403 811 439C946.842 475 1080.66 511 1216.5 499C1352.34 487 1486.16 427 1622 421C1757.84 415 1891.66 463 2027.5 475C2163.34 487 2297.16 463 2366.09 451L2433 439V655H2366.09C2297.16 655 2163.34 655 2027.5 655C1891.66 655 1757.84 655 1622 655C1486.16 655 1352.34 655 1216.5 655C1080.66 655 946.842 655 811 655C675.157 655 541.342 655 405.5 655C269.657 655 135.842 655 66.9075 655H0V439Z" fill="#202124"/>
</svg>
